<svg width="152" height="22" viewBox="0 0 152 22" fill="none" xmlns="http://www.w3.org/2000/svg">
<g clip-path="url(#clip0_488_600)">
<path d="M12 2L15.09 8.25342L22 9.26236L17 14.1272L18.18 21L12 17.7534L5.82 21L7 14.1272L2 9.26236L8.91 8.25342L12 2Z" fill="#22AEDE"/>
<path fill-rule="evenodd" clip-rule="evenodd" d="M12 0.871338L15.422 7.7966L23.075 8.91403L17.5373 14.3021L18.8442 21.9137L12 18.3182L5.1558 21.9137L6.46267 14.3021L0.924988 8.91403L8.57802 7.7966L12 0.871338ZM12 3.12868L9.24197 8.71026L3.075 9.6107L7.53732 13.9524L6.48419 20.0863L12 17.1886L17.5158 20.0863L16.4627 13.9524L20.925 9.6107L14.758 8.71026L12 3.12868Z" fill="#22AEDE"/>
</g>
<g clip-path="url(#clip1_488_600)">
<path d="M44 2L47.09 8.25342L54 9.26236L49 14.1272L50.18 21L44 17.7534L37.82 21L39 14.1272L34 9.26236L40.91 8.25342L44 2Z" fill="#22AEDE"/>
<path fill-rule="evenodd" clip-rule="evenodd" d="M44 0.871338L47.422 7.7966L55.075 8.91403L49.5373 14.3021L50.8442 21.9137L44 18.3182L37.1558 21.9137L38.4627 14.3021L32.925 8.91403L40.578 7.7966L44 0.871338ZM44 3.12868L41.242 8.71026L35.075 9.6107L39.5373 13.9524L38.4842 20.0863L44 17.1886L49.5158 20.0863L48.4627 13.9524L52.925 9.6107L46.758 8.71026L44 3.12868Z" fill="#22AEDE"/>
</g>
<g clip-path="url(#clip2_488_600)">
<path d="M76 2L79.09 8.25342L86 9.26236L81 14.1272L82.18 21L76 17.7534L69.82 21L71 14.1272L66 9.26236L72.91 8.25342L76 2Z" fill="#22AEDE"/>
<path fill-rule="evenodd" clip-rule="evenodd" d="M76 0.871338L79.422 7.7966L87.075 8.91403L81.5373 14.3021L82.8442 21.9137L76 18.3182L69.1558 21.9137L70.4627 14.3021L64.925 8.91403L72.578 7.7966L76 0.871338ZM76 3.12868L73.242 8.71026L67.075 9.6107L71.5373 13.9524L70.4842 20.0863L76 17.1886L81.5158 20.0863L80.4627 13.9524L84.925 9.6107L78.758 8.71026L76 3.12868Z" fill="#22AEDE"/>
</g>
<g clip-path="url(#clip3_488_600)">
<path d="M108 2L111.09 8.25342L118 9.26236L113 14.1272L114.18 21L108 17.7534L101.82 21L103 14.1272L98 9.26236L104.91 8.25342L108 2Z" fill="#22AEDE"/>
<path fill-rule="evenodd" clip-rule="evenodd" d="M108 0.871338L111.422 7.7966L119.075 8.91403L113.537 14.3021L114.844 21.9137L108 18.3182L101.156 21.9137L102.463 14.3021L96.925 8.91403L104.578 7.7966L108 0.871338ZM108 3.12868L105.242 8.71026L99.075 9.6107L103.537 13.9524L102.484 20.0863L108 17.1886L113.516 20.0863L112.463 13.9524L116.925 9.6107L110.758 8.71026L108 3.12868Z" fill="#22AEDE"/>
</g>
<g clip-path="url(#clip4_488_600)">
<path fill-rule="evenodd" clip-rule="evenodd" d="M140 0.871338L143.422 7.7966L151.075 8.91403L145.537 14.3021L146.844 21.9137L140 18.3182L133.156 21.9137L134.463 14.3021L128.925 8.91403L136.578 7.7966L140 0.871338ZM143 8.91403V14.3021V18.7646L145.516 20.0863L144.463 13.9524L148.925 9.6107L143 8.91403Z" fill="#22AEDE"/>
</g>
<defs>
<clipPath id="clip0_488_600">
<rect width="24" height="22" fill="white"/>
</clipPath>
<clipPath id="clip1_488_600">
<rect width="24" height="22" fill="white" transform="translate(32)"/>
</clipPath>
<clipPath id="clip2_488_600">
<rect width="24" height="22" fill="white" transform="translate(64)"/>
</clipPath>
<clipPath id="clip3_488_600">
<rect width="24" height="22" fill="white" transform="translate(96)"/>
</clipPath>
<clipPath id="clip4_488_600">
<rect width="24" height="22" fill="white" transform="translate(128)"/>
</clipPath>
</defs>
</svg>
